<?xml version="1.0" encoding="utf-8"?>
<!-- Generator: Adobe Illustrator 16.0.4, SVG Export Plug-In . SVG Version: 6.00 Build 0)  -->
<svg version="1.2" baseProfile="tiny" id="Layer_1" xmlns="http://www.w3.org/2000/svg" xmlns:xlink="http://www.w3.org/1999/xlink"
	 x="0px" y="0px" width="256px" height="256px" viewBox="0 0 256 256" xml:space="preserve">
<rect fill="#333333" width="256" height="256"/>
<g>
	<path fill="#F2F2F2" d="M42.461,155.078l33.367-81.914h8.633l33.359,81.914h-10.836l-9.781-24.672h-34.25l-9.781,24.672H42.461z
		 M80.047,85.898c-3.648,10.195-7.141,19.461-10.469,27.797l-3.062,7.711h27.148l-3.102-7.711
		c-3.359-8.477-6.781-17.742-10.266-27.797H80.047z"/>
	<path fill="#F2F2F2" d="M147.984,155.078V73.164h9.977v40.469h0.125l37.648-40.469h9.977l-38.195,40.773l40.461,41.141H198
		l-39.914-40.102h-0.125v40.102H147.984z"/>
</g>
<rect y="236" fill="#FFFFFF" width="256" height="20"/>
</svg>
